<?xml version="1.0" encoding="utf-8"?>
<!-- Generator: Adobe Illustrator 25.0.0, SVG Export Plug-In . SVG Version: 6.00 Build 0)  -->
<svg version="1.1" id="Capa_1" xmlns="http://www.w3.org/2000/svg" xmlns:xlink="http://www.w3.org/1999/xlink" x="0px" y="0px"
	 viewBox="0 0 400 140" style="enable-background:new 0 0 400 140;" xml:space="preserve">
<style type="text/css">
	.st0{fill:#FFFFFF;}
	.st1{fill:#439ECC;}
	.st2{fill:#35F991;}
</style>
<g>
	<path class="st0" d="M167.5,108.9H154V84.5c0-6.2-2.3-9.3-7-9.3c-2.2,0-4,0.9-5.4,2.8s-2.1,4.2-2.1,7v23.9H126V84.3
		c0-6-2.3-9.1-6.9-9.1c-2.3,0-4.2,0.9-5.5,2.7c-1.4,1.8-2.1,4.2-2.1,7.3V109H98V66.1h13.5v6.7h0.2c1.4-2.3,3.4-4.1,5.9-5.6
		c2.5-1.4,5.3-2.2,8.3-2.2c6.2,0,10.4,2.7,12.7,8c3.3-5.3,8.2-8,14.7-8c9.5,0,14.3,5.7,14.3,17.2v26.7H167.5z"/>
	<path class="st0" d="M191.3,94.4c0,1.8,0.4,3.2,1.3,4.1c0.9,0.9,2.1,1.4,3.5,1.4c0.7,0,1.5-0.1,2.2-0.2s1.5-0.3,2.2-0.4v9.3
		c-1.6,0.4-3.3,0.8-5.1,1c-1.8,0.3-3.7,0.4-5.7,0.4c-1.8,0-3.4-0.3-4.9-0.9s-2.7-1.4-3.8-2.5c-1-1.1-1.8-2.4-2.4-4
		c-0.6-1.6-0.9-3.3-0.9-5.3V66.1h13.4v28.3H191.3z"/>
	<path class="st0" d="M219.9,103.9h-0.2v24.6h-13.5V66.1h13.5v6.4h0.2c3.3-5,8-7.5,14.1-7.5c5.7,0,10,1.9,13.1,5.7
		c3.1,3.8,4.6,9,4.6,15.5c0,7.1-1.8,12.9-5.4,17.2c-3.6,4.3-8.4,6.5-14.4,6.5C226.7,109.9,222.7,107.9,219.9,103.9z M219.5,86.4v3.4
		c0,3,0.8,5.4,2.4,7.2c1.6,1.9,3.7,2.8,6.3,2.8c3.1,0,5.5-1.2,7.2-3.5s2.5-5.6,2.5-9.9c0-7.5-3-11.3-9-11.3c-2.8,0-5,1-6.8,3.1
		C220.4,80.3,219.5,83,219.5,86.4z"/>
	<path class="st0" d="M299.8,91.3h-28.5c0.5,6.2,4.5,9.3,12,9.3c4.8,0,9-1.1,12.7-3.3v9.5c-4,2.1-9.3,3.2-15.8,3.2
		c-7.1,0-12.5-1.9-16.4-5.7c-3.9-3.8-5.9-9.2-5.9-16c0-7.1,2.1-12.7,6.3-16.9c4.2-4.1,9.4-6.2,15.6-6.2c6.4,0,11.3,1.9,14.8,5.6
		s5.2,8.7,5.2,15.1L299.8,91.3L299.8,91.3z M287.3,83.2c0-6.1-2.5-9.2-7.6-9.2c-2.2,0-4,0.9-5.6,2.6c-1.6,1.8-2.5,3.9-2.9,6.6H287.3
		z"/>
	<path class="st0" d="M350.7,104c0,7.9-2.3,14.1-7,18.4c-4.7,4.4-11.5,6.5-20.4,6.5c-5.9,0-10.6-0.8-14-2.5v-11.1
		c4.5,2.6,9,3.8,13.6,3.8s8.1-1.2,10.6-3.5c2.5-2.4,3.8-5.5,3.8-9.6v-3.4h-0.2c-3.1,4.8-7.6,7.2-13.6,7.2c-5.6,0-10-1.9-13.3-5.8
		c-3.3-3.8-4.9-9-4.9-15.5c0-7.2,1.8-13,5.5-17.3c3.6-4.3,8.4-6.4,14.4-6.4c5.3,0,9.3,2,12,6h0.2v-5h13.5V104H350.7z M337.4,88.4V85
		c0-2.7-0.8-5-2.5-6.9c-1.6-1.9-3.8-2.9-6.4-2.9c-3,0-5.3,1.1-7,3.4s-2.6,5.5-2.6,9.7c0,3.6,0.8,6.4,2.4,8.5s3.8,3.1,6.7,3.1
		c2.8,0,5-1.1,6.8-3.2C336.6,94.6,337.4,91.8,337.4,88.4z"/>
	<path class="st0" d="M398.4,108.9h-12.8v-6.1h-0.2c-2.9,4.8-7.3,7.2-13,7.2c-4.2,0-7.6-1.2-10-3.5c-2.4-2.4-3.7-5.5-3.7-9.4
		c0-8.3,5-13.1,15.1-14.4l11.9-1.5c0-4.7-2.6-7-7.8-7c-5.2,0-10.2,1.5-14.9,4.6v-9.9c1.9-0.9,4.4-1.8,7.7-2.5
		c3.3-0.7,6.2-1.1,8.9-1.1c12.5,0,18.7,6.1,18.7,18.3L398.4,108.9L398.4,108.9z M385.7,91.5v-2.9l-7.9,1c-4.4,0.6-6.6,2.5-6.6,5.8
		c0,1.5,0.5,2.7,1.6,3.7s2.5,1.4,4.3,1.4c2.5,0,4.6-0.9,6.2-2.6C384.9,96.3,385.7,94.1,385.7,91.5z"/>
</g>
<g>
	<path class="st0" d="M66.3,64.9c-3.2-1.5-7.1-1.2-9.6,1.3c-6.4,6.3-16.4,8.2-25,4c-6.9-3.2-11.2-9.5-12.3-16.4
		c-0.1-0.9-0.2-1.8-0.2-2.8C19,50.8,19,50.5,19,50.2c0-0.8,0.1-1.7,0.2-2.5c0.4-3.3-1.6-6.5-4.6-7.9l-0.5-0.2
		C9,37,2.9,40.1,2.3,45.7c-0.2,1.5-0.3,3-0.3,4.5c0,0.9,0,1.8,0.1,2.7c1,13.7,9,26.4,22.2,32.7c5.6,2.7,11.6,3.9,17.4,3.9
		c9.9-0.1,19.5-4,26.7-11C72.6,74.5,71.6,67.5,66.3,64.9L66.3,64.9z"/>
	<path class="st1" d="M58.2,14.8c-15.5-7.4-33.5-3.7-44.9,7.9c-3.9,3.9-2.5,10.6,2.5,13l0.1,0.1c3.2,1.6,7.2,1.2,9.7-1.3
		C32,28,42.2,26,50.8,30.1c8.8,4.3,13.6,13.6,12.5,22.7c-0.4,3.6,1.8,7,5,8.6l0,0c5,2.4,11.1-0.6,11.8-6.1
		C82.3,38.9,73.9,22.3,58.2,14.8z"/>
	<path class="st0" d="M41.7,86.9C28.3,80.1,19,66.2,19,50.2H2c0,25.6,16.7,47.4,39.7,55.1V86.9z"/>
	<circle class="st2" cx="41.6" cy="50.3" r="16.1"/>
</g>
<path class="st2" d="M176.3,50.2c0-2.1,0.7-3.7,2.2-5s3.3-1.9,5.6-1.9s4.2,0.7,5.7,2s2.2,3,2.2,5s-0.7,3.7-2.2,5.1
	c-1.5,1.3-3.3,2-5.6,2c-2.2,0-4.1-0.7-5.6-2C177,53.9,176.3,52.2,176.3,50.2z"/>
</svg>
