<svg xmlns="http://www.w3.org/2000/svg" width="37.626" height="53.718" viewBox="0 0 37.626 53.718">
  <path id="electrician_1_" data-name="electrician (1)" d="M113.274,39.355a20.572,20.572,0,0,1-3.372-1.142,7.733,7.733,0,0,0,1.355-5.961l-.652-3.209a2.008,2.008,0,0,0-.268-3.03v-2.7h.759a1.91,1.91,0,0,0,.584-3.729,11.838,11.838,0,0,0-.884-3.987,9.96,9.96,0,0,0-2.629-3.609v-.259a1.936,1.936,0,0,0-3.07-1.571,10.2,10.2,0,0,0-1.868-.511,1.937,1.937,0,0,0-3.549,0,10.289,10.289,0,0,0-1.868.513,1.936,1.936,0,0,0-3.072,1.57v.266A9.953,9.953,0,0,0,92.114,15.6a11.831,11.831,0,0,0-.887,3.98,1.911,1.911,0,0,0,.583,3.73h.917V26.05a2.005,2.005,0,0,0-.29,2.919l-.667,3.283a7.713,7.713,0,0,0,1.383,5.994,24.968,24.968,0,0,1-3.522,1.109A9.094,9.094,0,0,0,82.64,48.23V61.549a.651.651,0,0,0,.651.651h36.324a.651.651,0,0,0,.651-.651V48.23A9.093,9.093,0,0,0,113.274,39.355ZM108.7,37.632,106.5,36.458v-.605a7.5,7.5,0,0,0,2.364-4.037l.464-2.167.069-.008.583,2.871A6.37,6.37,0,0,1,108.7,37.632Zm-7.141-1.211a6.187,6.187,0,0,1-3.877-1.37c-.059-.048-.118-.1-.177-.148a6.126,6.126,0,0,1-1.981-3.36l-.573-2.675a.651.651,0,0,0-.637-.515h-.362a.7.7,0,0,1-.417-.136A.707.707,0,0,1,93.654,27a.689.689,0,0,1,.294-.064h.362a.651.651,0,0,0,.651-.651,3.216,3.216,0,0,1,1.993-2.978h6.507q.227.051.471.092a12.8,12.8,0,0,0,1.555.147,2.741,2.741,0,0,1,2.661,2.74.651.651,0,0,0,.651.651h.362a.7.7,0,0,1,.271.054.707.707,0,0,1,.229,1.154.672.672,0,0,1-.124.1.7.7,0,0,1-.376.109H108.8a.651.651,0,0,0-.637.515l-.573,2.675a6.173,6.173,0,0,1-6.036,4.878Zm3.644.353v2.62a5.1,5.1,0,0,1-7.475,0V36.664a7.462,7.462,0,0,0,7.475.11ZM94.03,24.493V23.309h.749a4.37,4.37,0,0,0-.749,1.184Zm14.114-1.184h.89v1.182a4.029,4.029,0,0,0-.89-1.182Zm-2.552-11.583a.635.635,0,0,1,.142-.4c.014-.016.028-.033.042-.047a.636.636,0,0,1,1.087.449v2.646a.637.637,0,0,1-.637.636H106.2a.633.633,0,0,1-.609-.636Zm-4.775-1.3a.635.635,0,0,1,.007-.1h0a.636.636,0,0,1,1.264.1v3.948a.637.637,0,0,1-.637.636h-.026a.633.633,0,0,1-.609-.636Zm-4.775,1.3a.636.636,0,0,1,1.272,0v2.646a.637.637,0,0,1-.637.636h-.026a.633.633,0,0,1-.609-.636ZM91.811,22.007a.608.608,0,0,1-.428-1.039.6.6,0,0,1,.428-.177h3.746a.651.651,0,0,0,0-1.3H92.537a10.464,10.464,0,0,1,.776-3.38A8.613,8.613,0,0,1,94.74,13.83v.541a1.929,1.929,0,0,0,1.881,1.938h.056a1.941,1.941,0,0,0,1.939-1.938V11.725a1.937,1.937,0,0,0-.056-.455A9.009,9.009,0,0,1,99.514,11v3.368a1.929,1.929,0,0,0,1.881,1.938h.056a1.941,1.941,0,0,0,1.939-1.938V11a8.9,8.9,0,0,1,.955.266,1.932,1.932,0,0,0-.056.457v2.646a1.929,1.929,0,0,0,1.881,1.938h.056a1.941,1.941,0,0,0,1.939-1.938v-.548A8.614,8.614,0,0,1,109.6,16.1a10.463,10.463,0,0,1,.773,3.386H98.161a.651.651,0,1,0,0,1.3h12.934a.608.608,0,0,1,0,1.217Zm1.236,10.5.585-2.882c.05.008.1.014.15.018l.464,2.167a7.413,7.413,0,0,0,2.175,3.867v1l-2.033,1.007a6.448,6.448,0,0,1-1.342-5.182ZM100.8,60.9H90.435V58.909H100.8Zm0-3.291H90.435V56.3H100.8Zm0-2.6H90.435V52.723H100.8Zm0-3.581H90.435v-1.3H100.8Zm0-2.6H90.435V45.182a.651.651,0,1,0-1.3,0V60.9h-5.19V48.23a7.793,7.793,0,0,1,5.19-7.369v1.861a.651.651,0,1,0,1.3,0V40.5a24.8,24.8,0,0,0,4.09-1.417l.063-.029v1.194a6.865,6.865,0,0,0,6.214,6.834Zm-3.283-4.638a5.527,5.527,0,0,1-1.629-3.933V38.414l.532-.267v1.494a.651.651,0,0,0,.154.421,6.4,6.4,0,0,0,9.771,0,.651.651,0,0,0,.154-.421V37.949l.514.283v2.013a5.563,5.563,0,0,1-9.5,3.934ZM112.471,60.9H102.1V58.909h10.367Zm0-3.291H102.1V56.3h10.367Zm0-2.6H102.1V52.723h10.367Zm0-3.581H102.1v-1.3h10.367Zm0-2.6H102.1V47.078a6.874,6.874,0,0,0,6.214-6.833v-1.33c.074.037.148.075.222.11a22.76,22.76,0,0,0,3.931,1.469ZM118.963,60.9h-5.19V40.861a7.793,7.793,0,0,1,5.19,7.369Z" transform="translate(-82.64 -8.482)" fill="#35f991"/>
</svg>
