<svg xmlns="http://www.w3.org/2000/svg" width="42" height="51.405" viewBox="0 0 42 51.405">
  <g id="gardener" transform="translate(-11.299)">
    <g id="Group_33" data-name="Group 33" transform="translate(11.299)">
      <path id="Path_57" data-name="Path 57" d="M53.294,48.81l-.52-8.728a7.653,7.653,0,0,0-4.385-6.792l-9-3.722a.572.572,0,0,0-.592.1l-.02.017c-.073.061-.148.118-.223.177L36.7,28.707v-2.02a10.823,10.823,0,0,0,3.911-7.537c0-.023,0-.046,0-.068h.416a1.892,1.892,0,0,0,1.726-2.019V14.679h1.585a2.058,2.058,0,0,0,1.877-2.2,2.058,2.058,0,0,0-1.877-2.2H42.052C41.912,4.587,37.905,0,33,0H31.6c-4.906,0-8.912,4.587-9.053,10.287H20.252a2.058,2.058,0,0,0-1.877,2.2,2.058,2.058,0,0,0,1.877,2.2h1.585v2.384a1.892,1.892,0,0,0,1.725,2.019h.416c0,.029,0,.058,0,.088a10.837,10.837,0,0,0,3.911,7.537v2l-1.845,1.15c-.081-.064-.162-.126-.242-.193a.573.573,0,0,0-.593-.1l-9,3.722a7.637,7.637,0,0,0-4.353,6.38.743.743,0,0,0,.57.844.681.681,0,0,0,.721-.666,6.134,6.134,0,0,1,3.5-5.124l3.024-1.25v5.779a2.686,2.686,0,0,1-.574,1.7,4.124,4.124,0,0,0-.682,2.758v6.176H13.373a.72.72,0,0,1-.566-.288.992.992,0,0,1-.206-.681l.221-3.714a.73.73,0,0,0-.6-.811.693.693,0,0,0-.693.705L11.3,48.81a2.7,2.7,0,0,0,.552,1.824,1.955,1.955,0,0,0,1.517.771H51.225a1.953,1.953,0,0,0,1.516-.771A2.7,2.7,0,0,0,53.294,48.81ZM41.961,32.245l1.671.691V38.03a2.065,2.065,0,0,0-1.053-.292,2.028,2.028,0,0,0-.618.1v-5.59Zm.618,7.014a1.244,1.244,0,1,1-1.051,1.229A1.152,1.152,0,0,1,42.579,39.259Zm-1.118-22.2a.467.467,0,0,1-.426.5h-.411V14.679h.837Zm-17.487.5h-.411a.467.467,0,0,1-.426-.5V14.679h.837Zm-3.722-4.4a.684.684,0,0,1,0-1.352h14.5a.769.769,0,0,0,0-1.52H23.846C23.986,5.425,27.41,1.52,31.6,1.52H33c4.189,0,7.613,3.9,7.752,8.766h-1.4a.77.77,0,0,0,0,1.52h5a.684.684,0,0,1,0,1.352Zm5.022,5.673V14.679H39.325v4.133a9.243,9.243,0,0,1-3.619,6.813l-.032.022q-.086.061-.173.117l-.065.042c-.051.032-.1.063-.154.093l-.065.038q-.1.059-.207.111l-.063.031c-.051.025-.1.049-.153.072l-.078.034q-.073.031-.147.059l-.07.026c-.071.025-.143.049-.214.07l-.084.024a5.2,5.2,0,0,1-3.906-.01c-.072-.021-.145-.046-.217-.072l-.067-.026q-.076-.029-.152-.061l-.075-.033q-.076-.034-.151-.072l-.067-.033c-.071-.036-.142-.074-.212-.115h0c-.076-.044-.151-.09-.225-.138l-.024-.016c-.069-.045-.138-.091-.206-.14l-.013-.009A9.255,9.255,0,0,1,25.274,18.832Zm3.2,11.235a1.311,1.311,0,0,0,.718-1.221V27.524l.108.049c.05.022.1.045.15.065s.128.052.193.076l.078.028c.086.03.171.059.257.084l.18.052.066.019.106.03.051.014.116.032.033.009.127.034.036.009.118.03.051.012.1.023.058.013.085.019.059.012.08.017.06.011.075.014.058.01.074.012.056.008.073.01.056.007.071.009.055.005.07.007.055,0,.068,0,.055,0,.067,0h.243l.063,0,.059,0,.065,0,.057,0,.069-.006.055-.005.07-.008.056-.007.073-.01L33,28.2l.078-.013.053-.009.083-.015.051-.009.091-.018.047-.01.1-.022.042-.009.111-.026.036-.009.125-.031.028-.007.143-.037.015,0c.162-.043.332-.091.515-.144l.085-.024c.085-.025.171-.053.256-.083l.086-.031c.057-.021.113-.043.17-.067.079-.032.157-.067.235-.1l.06-.027v1.342a1.312,1.312,0,0,0,.717,1.221l1.1.686c-.168.1-.339.187-.51.273l-.127.063-.2.1-.19.084c-.069.03-.138.06-.208.088-.094.038-.189.076-.284.111l-.124.045q-.137.049-.275.094l-.094.031q-.391.122-.787.212l-.032.007a9.656,9.656,0,0,1-3.795.077l-.012,0q-.2-.036-.4-.081l-.022,0q-.395-.089-.785-.213l-.1-.032q-.137-.045-.273-.094l-.119-.043q-.169-.063-.337-.132c-.056-.023-.111-.048-.166-.072l-.176-.078-.2-.1-.121-.06c-.17-.085-.338-.174-.5-.27Zm-4.538,1.641,1.4-.578a12.151,12.151,0,0,0,1.461.982l.04.023q.167.095.335.183l.081.042q.152.078.306.152l.12.057q.138.064.276.124l.16.068c.081.034.162.067.244.1l.2.076.207.074c.084.029.168.056.253.083l.165.052c.1.031.206.059.309.087l.116.031q.187.048.376.089l.054.012A10.767,10.767,0,0,0,32.3,33.6h0a10.762,10.762,0,0,0,2.265-.243l.017,0q.208-.045.414-.1l.082-.022c.115-.031.229-.062.343-.1l.136-.043c.094-.03.188-.06.282-.092l.182-.065c.077-.028.153-.056.229-.086s.149-.059.223-.09l.181-.076q.13-.056.259-.116l.136-.064q.147-.07.292-.145l.093-.049q.163-.086.325-.177l.049-.028a12.146,12.146,0,0,0,1.455-.979l1.4.578v6.415a1.533,1.533,0,0,1-1.3,1.685H25.241a1.533,1.533,0,0,1-1.3-1.685Zm-.867,8.78a1.064,1.064,0,1,1-1.051-1.229A1.152,1.152,0,0,1,23.07,40.488Zm-2.1-7.552h0l1.671-.691v5.59a2.027,2.027,0,0,0-.618-.1,2.065,2.065,0,0,0-1.053.292ZM19.709,49.884V43.708a2.694,2.694,0,0,1,.314-1.7l.023-.028a2.291,2.291,0,0,0,1.972,1.256,2.466,2.466,0,0,0,2.288-2.122l.02.009.05.022.066.028.051.019.068.024.051.016.07.02.052.013.073.016.051.01.076.012.049.007.085.008.042,0c.043,0,.085,0,.128,0H39.357c.043,0,.086,0,.128,0l.042,0,.085-.008.049-.007.077-.012.05-.01.073-.016.051-.013.071-.02.05-.016.07-.025.049-.018.07-.029.047-.021.022-.01a2.466,2.466,0,0,0,2.288,2.122,2.29,2.29,0,0,0,1.972-1.256l.023.028a2.694,2.694,0,0,1,.314,1.7v6.176ZM51.792,49.6a.72.72,0,0,1-.566.288H46.188V43.708a4.123,4.123,0,0,0-.682-2.758,2.686,2.686,0,0,1-.574-1.7V33.473l3.024,1.25a6.149,6.149,0,0,1,3.522,5.46L52,48.915A.993.993,0,0,1,51.792,49.6Z" transform="translate(-11.299)" fill="#35f991"/>
    </g>
  </g>
</svg>
