<svg id="phone-call" xmlns="http://www.w3.org/2000/svg" width="65.225" height="65.226" viewBox="0 0 65.225 65.226">
  <g id="Group_14" data-name="Group 14" transform="translate(15.164)">
    <g id="Group_13" data-name="Group 13">
      <path id="Path_32" data-name="Path 32" d="M120.311,0a1.274,1.274,0,0,0,0,2.548,13.24,13.24,0,0,1,13.052,13.391,1.274,1.274,0,0,0,2.548,0A15.79,15.79,0,0,0,120.311,0Z" transform="translate(-119.037)" fill="#35f991"/>
    </g>
  </g>
  <g id="Group_16" data-name="Group 16" transform="translate(15.16 6.045)">
    <g id="Group_15" data-name="Group 15">
      <path id="Path_33" data-name="Path 33" d="M120.278,47.447a1.274,1.274,0,0,0,0,2.548,7.257,7.257,0,0,1,7.147,7.346,1.274,1.274,0,1,0,2.548,0A9.807,9.807,0,0,0,120.278,47.447Z" transform="translate(-119.004 -47.447)" fill="#35f991"/>
    </g>
  </g>
  <g id="Group_18" data-name="Group 18" transform="translate(15.185 11.613)">
    <g id="Group_17" data-name="Group 17">
      <path id="Path_34" data-name="Path 34" d="M120.472,91.155a1.274,1.274,0,1,0,0,2.548,1.707,1.707,0,0,1,1.67,1.739,1.274,1.274,0,1,0,2.548,0A4.258,4.258,0,0,0,120.472,91.155Z" transform="translate(-119.198 -91.155)" fill="#35f991"/>
    </g>
  </g>
  <g id="Group_20" data-name="Group 20" transform="translate(34.902 10.098)">
    <g id="Group_19" data-name="Group 19">
      <path id="Path_35" data-name="Path 35" d="M297.476,79.265h-2.824a1.274,1.274,0,0,0,0,2.548h2.824a4.273,4.273,0,0,1,4.268,4.268v17.3a4.262,4.262,0,0,1-1.623,3.346v-3.332a5.4,5.4,0,0,0-4.41-5.309l-.824-.154a5.749,5.749,0,0,0,.284-1.787V93.214a5.773,5.773,0,1,0-11.547,0v2.928a5.753,5.753,0,0,0,.284,1.787l-.824.154a5.4,5.4,0,0,0-4.41,5.309v3.694a4.27,4.27,0,0,1-2.158-3.708v-17.3a4.273,4.273,0,0,1,4.268-4.268h3.037a1.274,1.274,0,1,0,0-2.548h-3.037a6.824,6.824,0,0,0-6.816,6.816v17.3a6.824,6.824,0,0,0,6.816,6.816H287.2v3.663a1.274,1.274,0,0,0,2.172.9l4.6-4.567h3.511a6.824,6.824,0,0,0,6.816-6.816v-17.3A6.824,6.824,0,0,0,297.476,79.265Zm-11.3,13.949a3.225,3.225,0,1,1,6.45,0v2.928a3.225,3.225,0,1,1-6.45,0Zm11.4,14.428-.1,0h-4.036a1.275,1.275,0,0,0-.9.37l-2.8,2.779v-1.875a1.274,1.274,0,0,0-1.274-1.274h-7.247v-4.254a2.853,2.853,0,0,1,2.329-2.8l1.8-.335a5.761,5.761,0,0,0,8.1,0l1.8.335a2.853,2.853,0,0,1,2.329,2.8v4.251Z" transform="translate(-273.969 -79.265)" fill="#35f991"/>
    </g>
  </g>
  <g id="Group_22" data-name="Group 22" transform="translate(48.279 10.098)">
    <g id="Group_21" data-name="Group 21">
      <path id="Path_36" data-name="Path 36" d="M381.155,79.642a1.273,1.273,0,1,0,.373.9A1.278,1.278,0,0,0,381.155,79.642Z" transform="translate(-378.98 -79.269)" fill="#35f991"/>
    </g>
  </g>
  <g id="Group_24" data-name="Group 24" transform="translate(21.504 42.487)">
    <g id="Group_23" data-name="Group 23">
      <path id="Path_37" data-name="Path 37" d="M170.981,333.88a1.274,1.274,0,1,0,.373.9A1.282,1.282,0,0,0,170.981,333.88Z" transform="translate(-168.806 -333.507)" fill="#35f991"/>
    </g>
  </g>
  <g id="Group_26" data-name="Group 26" transform="translate(0 12.542)">
    <g id="Group_25" data-name="Group 25">
      <path id="Path_38" data-name="Path 38" d="M51.573,140.287l-9.761-9.761a3.824,3.824,0,0,0-4.86-.452l-6.23,4.26a1.275,1.275,0,0,1-1.62-.151l-2.06-2.06a1.274,1.274,0,0,0-1.8,1.8l2.06,2.06a3.824,3.824,0,0,0,4.86.452l6.23-4.26a1.275,1.275,0,0,1,1.62.151l9.761,9.761a1.276,1.276,0,0,1,0,1.8,16.072,16.072,0,0,1-22.7,0L7.247,124.07a16.054,16.054,0,0,1,0-22.7,1.274,1.274,0,0,1,1.8,0l9.761,9.761a1.275,1.275,0,0,1,.151,1.62l-4.26,6.23a3.824,3.824,0,0,0,.452,4.86l3.1,3.1a1.274,1.274,0,0,0,1.8-1.8l-3.1-3.1a1.275,1.275,0,0,1-.151-1.62l4.26-6.23a3.825,3.825,0,0,0-.453-4.86l-9.761-9.761a3.827,3.827,0,0,0-5.406,0,18.623,18.623,0,0,0,0,26.307l19.82,19.82a18.623,18.623,0,0,0,26.307,0A3.827,3.827,0,0,0,51.573,140.287Z" transform="translate(-0.006 -98.447)" fill="#35f991"/>
    </g>
  </g>
  <g id="Group_28" data-name="Group 28" transform="translate(7.264 23.232)">
    <g id="Group_27" data-name="Group 27">
      <path id="Path_39" data-name="Path 39" d="M66.926,190.461,59.2,182.738a1.274,1.274,0,1,0-1.8,1.8l7.724,7.723a1.274,1.274,0,1,0,1.8-1.8Z" transform="translate(-57.027 -182.365)" fill="#35f991"/>
    </g>
  </g>
  <g id="Group_30" data-name="Group 30" transform="translate(36.421 52.389)">
    <g id="Group_29" data-name="Group 29">
      <path id="Path_40" data-name="Path 40" d="M296.2,419.734l-8.126-8.126a1.274,1.274,0,0,0-1.8,1.8l8.126,8.126a1.274,1.274,0,0,0,1.8-1.8Z" transform="translate(-285.898 -411.235)" fill="#35f991"/>
    </g>
  </g>
</svg>
