<svg xmlns="http://www.w3.org/2000/svg" width="48" height="48.81" viewBox="0 0 48 48.81">
  <g id="plumber" transform="translate(-9.151 -5)">
    <path id="Path_50" data-name="Path 50" d="M407.033,435.05H405a.583.583,0,0,0-.506.292l-1.018,1.763a.583.583,0,0,0,0,.583l1.018,1.763a.583.583,0,0,0,.506.292h2.036a.583.583,0,0,0,.506-.292l1.018-1.763a.583.583,0,0,0,0-.583l-1.019-1.763A.583.583,0,0,0,407.033,435.05Zm-.337,3.526h-1.362l-.681-1.18.681-1.18H406.7l.681,1.18Z" transform="translate(-355.916 -388.239)" fill="#35f991"/>
    <path id="Path_51" data-name="Path 51" d="M36.595,33.339a19.661,19.661,0,0,1-4.855-1.924l-1.212-.666V30.2a6.625,6.625,0,0,0,2.13-3.9l.432-2.757a1.789,1.789,0,0,0,.888-3.219,11.741,11.741,0,0,0,.467-1.846h.2a1.711,1.711,0,0,0,.528-3.34,10.135,10.135,0,0,0-1.953-5.6,9.218,9.218,0,0,0-4.48-3.283l.064-.614A.583.583,0,0,0,28.221,5H23.789a.583.583,0,0,0-.58.644l.064.614a9.213,9.213,0,0,0-4.481,3.291,10.163,10.163,0,0,0-1.952,5.589,1.711,1.711,0,0,0,.527,3.34h.15a9.088,9.088,0,0,0,.432,1.412l.221.556a1.789,1.789,0,0,0,1.035,3.1l.432,2.757a6.62,6.62,0,0,0,1.86,3.644V30.95l-1.214.609a.58.58,0,0,0-.2.1l-.119.06a20.826,20.826,0,0,1-4.545,1.616A8.148,8.148,0,0,0,9.151,41.29V53.222a.583.583,0,0,0,.583.583H42.276a.583.583,0,0,0,.583-.583V41.29a8.148,8.148,0,0,0-6.265-7.952Zm-21.627,19.3H10.317V41.29a6.983,6.983,0,0,1,4.651-6.6ZM22.907,7.653a7.41,7.41,0,0,1,1.146-.41.583.583,0,0,0,.43-.624l-.047-.452h3.137l-.047.452a.583.583,0,0,0,.43.624,7.455,7.455,0,0,1,1.146.41v.8a4.722,4.722,0,0,1-3.006,4.4,4.709,4.709,0,0,1-3.19-4.466ZM19.73,10.242a8.291,8.291,0,0,1,2.01-1.935v.075a5.873,5.873,0,0,0,4.066,5.6l.121.039a.582.582,0,0,0,.37,0A5.889,5.889,0,0,0,30.27,8.448V8.3a8.279,8.279,0,0,1,2.011,1.931A8.952,8.952,0,0,1,34,15.054H18.014a8.983,8.983,0,0,1,1.717-4.812Zm-2.363,7.069a.545.545,0,1,1,0-1.09H34.643a.545.545,0,1,1,0,1.09H17.367ZM33.26,18.477c-.026.14-.056.278-.088.417v-.417Zm-14.138,0v1.2l-.089-.223a7.917,7.917,0,0,1-.317-.981ZM20.79,26.12l-.508-3.242a.583.583,0,0,0-.576-.493h-.322a.625.625,0,1,1,0-1.249h.322a.583.583,0,0,0,.583-.583V18.477H32.006v2.075a.583.583,0,0,0,.583.583H32.9a.578.578,0,0,0,.337.108l.027,0a.624.624,0,0,1-.348,1.143h-.322a.583.583,0,0,0-.576.493L31.5,26.12a5.423,5.423,0,0,1-10.715,0Zm1.874,5.022v-.269c.125.078.252.152.383.222a6.579,6.579,0,0,0,6.2,0l.113-.062v2.342a4.57,4.57,0,0,1-6.7,0V31.455a.579.579,0,0,0,0-.314Zm-1.643,1.353.476-.239V33.6a.583.583,0,0,0,.138.377,5.737,5.737,0,0,0,8.753,0,.583.583,0,0,0,.138-.377V32.078l.461.253V36.76a4.984,4.984,0,0,1-9.967,0Zm10.17,20.144h-9.4v-5.11a11.953,11.953,0,0,0,9.4.016Zm4.685,0H32.358V46.624a.583.583,0,0,0-.854-.517,10.786,10.786,0,0,1-10.026-.019.583.583,0,0,0-.856.516v6.034H16.135V34.36a22.182,22.182,0,0,0,3.72-1.3v3.7a6.15,6.15,0,1,0,12.3,0V32.945a20.447,20.447,0,0,0,3.72,1.414Zm5.817,0H37.042V34.688a6.983,6.983,0,0,1,4.651,6.6Z" fill="#35f991"/>
    <path id="Path_52" data-name="Path 52" d="M175.371,334.855a.769.769,0,1,0-.769-.769A.769.769,0,0,0,175.371,334.855Z" transform="translate(-149.366 -296.397)" fill="#35f991"/>
    <path id="Path_53" data-name="Path 53" d="M175.371,359.668a.769.769,0,1,0-.769-.769.769.769,0,0,0,.769.769Z" transform="translate(-149.366 -318.798)" fill="#35f991"/>
    <path id="Path_54" data-name="Path 54" d="M382.975,147.07l-.024-.025a.583.583,0,0,0-.954.151l-2.874,2.874-3.721-.691-.691-3.722,2.974-2.973a.583.583,0,0,0,0-.825l-.025-.025a.583.583,0,0,0-.358-.168,6.445,6.445,0,0,0-4.1,11.831v15.379a4.649,4.649,0,1,0,5.786,0V154.105a6.438,6.438,0,0,0,4.137-6.533.583.583,0,0,0-.149-.5Zm-3.4,25.439a3.482,3.482,0,1,1-3.482-3.482A3.482,3.482,0,0,1,379.575,172.509Zm-5.209-4.315v-14.1a6.437,6.437,0,0,0,3.453.336v13.769A4.632,4.632,0,0,0,374.367,168.194Zm6.064-16.379a5.279,5.279,0,1,1-4.585-8.943l-2.177,2.177a.583.583,0,0,0-.161.519l.82,4.417a.583.583,0,0,0,.467.467l4.417.82a.583.583,0,0,0,.519-.161l2.178-2.178a5.255,5.255,0,0,1-1.478,2.881Z" transform="translate(-325.994 -123.352)" fill="#35f991"/>
    <path id="Path_55" data-name="Path 55" d="M167.383,54.114h2.093a.583.583,0,1,0,0-1.167h-2.093a.583.583,0,1,0,0,1.167Z" transform="translate(-142.322 -43.285)" fill="#35f991"/>
    <path id="Path_56" data-name="Path 56" d="M167.383,34.267h2.093a.583.583,0,1,0,0-1.167h-2.093a.583.583,0,1,0,0,1.167Z" transform="translate(-142.322 -25.368)" fill="#35f991"/>
  </g>
</svg>
