<svg id="ranking" xmlns="http://www.w3.org/2000/svg" width="65.303" height="65.226" viewBox="0 0 65.303 65.226">
  <path id="Path_41" data-name="Path 41" d="M62.809,198.085H58.1V174.059a1.779,1.779,0,0,0-1.777-1.777H41.772v-6.927a1.779,1.779,0,0,0-1.777-1.777H25.309a1.779,1.779,0,0,0-1.777,1.777v6.776a.956.956,0,0,0,1.912,0v-6.641H39.86v32.6H25.444V176.205a.956.956,0,0,0-1.912,0v3.42H8.98A1.779,1.779,0,0,0,7.2,181.4v16.682H2.494A2.5,2.5,0,0,0,0,200.579v6.452a.956.956,0,0,0,.956.956H64.347a.956.956,0,0,0,.956-.956v-6.452A2.5,2.5,0,0,0,62.809,198.085ZM9.115,181.537H23.531v16.547H9.115Zm54.276,24.538H1.912v-5.5A.582.582,0,0,1,2.494,200H47.45a.956.956,0,1,0,0-1.912H41.772V174.194H56.188v23.891H51.525a.956.956,0,1,0,0,1.912H62.81a.582.582,0,0,1,.581.581v5.5Z" transform="translate(0 -142.761)" fill="#35f991"/>
  <path id="Path_42" data-name="Path 42" d="M186,11.957l-.758,4.419a1.706,1.706,0,0,0,2.475,1.8l3.969-2.087,3.969,2.087a1.706,1.706,0,0,0,2.475-1.8l-.758-4.419,3.211-3.13a1.706,1.706,0,0,0-.945-2.909L195.2,5.273l-1.985-4.021a1.706,1.706,0,0,0-3.059,0l-1.984,4.021-4.437.645a1.706,1.706,0,0,0-.945,2.909Zm2.554-4.807a1.706,1.706,0,0,0,1.284-.933l1.847-3.743,1.847,3.743a1.706,1.706,0,0,0,1.284.933l4.131.6-2.989,2.914a1.705,1.705,0,0,0-.491,1.51l.706,4.114-3.694-1.942a1.7,1.7,0,0,0-1.588,0L187.2,16.287l.706-4.114a1.706,1.706,0,0,0-.491-1.51L184.425,7.75Z" transform="translate(-159.036 -0.301)" fill="#35f991"/>
  <path id="Path_43" data-name="Path 43" d="M364.685,64.631a.956.956,0,0,0,.956.956h1.369a.956.956,0,1,0,0-1.912h-1.369A.956.956,0,0,0,364.685,64.631Z" transform="translate(-318.191 -55.595)" fill="#35f991"/>
  <path id="Path_44" data-name="Path 44" d="M352.711,9.319a.953.953,0,0,0,.395-.086l1.247-.566a.956.956,0,0,0-.79-1.741l-1.247.566a.956.956,0,0,0,.4,1.827Z" transform="translate(-306.908 -6.007)" fill="#35f991"/>
  <path id="Path_45" data-name="Path 45" d="M352.315,117.894l1.247.566a.956.956,0,0,0,.79-1.741l-1.247-.566a.956.956,0,0,0-.79,1.741Z" transform="translate(-306.908 -101.308)" fill="#35f991"/>
  <path id="Path_46" data-name="Path 46" d="M123.749,65.587h1.369a.956.956,0,1,0,0-1.912h-1.369a.956.956,0,1,0,0,1.912Z" transform="translate(-107.138 -55.595)" fill="#35f991"/>
  <path id="Path_47" data-name="Path 47" d="M137.243,8.666l1.247.566a.956.956,0,0,0,.79-1.741l-1.247-.566a.956.956,0,0,0-.79,1.741Z" transform="translate(-119.256 -6.005)" fill="#35f991"/>
  <path id="Path_48" data-name="Path 48" d="M138.49,116.153l-1.247.566a.956.956,0,1,0,.79,1.741l1.247-.566a.956.956,0,0,0-.79-1.741Z" transform="translate(-119.256 -101.308)" fill="#35f991"/>
</svg>
