<svg id="archive" xmlns="http://www.w3.org/2000/svg" width="60.594" height="65.226" viewBox="0 0 60.594 65.226">
  <g id="Group_12" data-name="Group 12" transform="translate(0 0)">
    <g id="Group_11" data-name="Group 11" transform="translate(0 0)">
      <path id="Path_26" data-name="Path 26" d="M39.346,35.691a.955.955,0,0,0,.955-.955V10.478a.332.332,0,0,1,.331-.331H86.961a.332.332,0,0,1,.331.331V22A.955.955,0,0,0,89.2,22V10.478a2.243,2.243,0,0,0-1.287-2.026V6.36a2.243,2.243,0,0,0-1.287-2.026V2.242A2.245,2.245,0,0,0,84.386,0H43.206a2.245,2.245,0,0,0-2.242,2.242V4.335A2.243,2.243,0,0,0,39.676,6.36V8.453a2.243,2.243,0,0,0-1.286,2.025V34.736A.956.956,0,0,0,39.346,35.691ZM41.587,6.36a.332.332,0,0,1,.331-.331H85.674a.332.332,0,0,1,.331.331V8.236H41.587Zm1.287-4.118a.332.332,0,0,1,.331-.331H84.387a.332.332,0,0,1,.331.331V4.118H42.874Z" transform="translate(-35.815 0)" fill="#35f991"/>
      <path id="Path_27" data-name="Path 27" d="M184.183,227.856a12.28,12.28,0,1,0,3.6,8.683A12.2,12.2,0,0,0,184.183,227.856Zm-1.351,16.016a10.369,10.369,0,1,1,3.037-7.332A10.3,10.3,0,0,1,182.832,243.871Z" transform="translate(-144.743 -195.69)" fill="#35f991"/>
      <path id="Path_28" data-name="Path 28" d="M78.495,148.217l-4.353-4.353v-11.7a.955.955,0,0,0-.955-.955H71.568V111.077a.955.955,0,1,0-1.911,0v20.131H64.3a16.4,16.4,0,0,0-24.646-19.253V97.931a.955.955,0,0,0-.955-.955H25.829a.955.955,0,0,0-.955.955v15.958a.955.955,0,0,0,.955.955H36.449a16.432,16.432,0,0,0-2.872,16.363H22.666v-7.391a.955.955,0,0,0-1.911,0v7.391H19.136a.955.955,0,0,0-.955.964l.143,16.729a.955.955,0,0,0,.955.947h5.677a.955.955,0,0,0,0-1.911H20.226L20.1,133.118H34.431a16.424,16.424,0,0,0,22.187,6.843l2.747,2.747a.955.955,0,0,0,1.351,0l.416-.416,1.925,1.925-.416.416a.955.955,0,0,0,0,1.351l1.953,1.953H29.414a.955.955,0,0,0,0,1.911H66.9a.955.955,0,0,0,.674-1.631l-2.908-2.908,4.109-4.109,8.368,8.368a.955.955,0,0,0,1.351-1.351ZM26.784,98.887H37.742v14.047H26.784Zm11.91,36.829a14.487,14.487,0,1,1,20.488,0A14.5,14.5,0,0,1,38.694,135.715Zm19.6,3.223a16.5,16.5,0,0,0,4.109-4.109l1.743,1.743-4.109,4.109Zm4.186,2,1.925-1.925,1.925,1.925-1.925,1.925Zm5.617-1.768-.416.416-1.925-1.925.416-.416a.955.955,0,0,0,0-1.351l-2.747-2.747.017-.032h8.785v8.834l-2.78-2.78a.955.955,0,0,0-1.351,0Z" transform="translate(-18.181 -84.622)" fill="#35f991"/>
      <path id="Path_29" data-name="Path 29" d="M230.451,96.976H207.029a.955.955,0,1,0,0,1.911h23.422a.955.955,0,0,0,0-1.911Z" transform="translate(-182.137 -84.622)" fill="#35f991"/>
      <path id="Path_30" data-name="Path 30" d="M231.406,130.256a.955.955,0,0,0-.955-.955H207.029a.955.955,0,1,0,0,1.911h23.422A.955.955,0,0,0,231.406,130.256Z" transform="translate(-182.137 -112.829)" fill="#35f991"/>
      <path id="Path_31" data-name="Path 31" d="M207.03,161.626a.955.955,0,1,0,0,1.911h15.7a.955.955,0,0,0,0-1.911Z" transform="translate(-182.138 -141.036)" fill="#35f991"/>
    </g>
  </g>
</svg>
