<?xml version="1.0" encoding="UTF-8"?>
<svg width="1280px" height="171px" viewBox="0 0 1280 171" version="1.1" xmlns="http://www.w3.org/2000/svg" xmlns:xlink="http://www.w3.org/1999/xlink">
    <!-- Generator: Sketch 49.2 (51160) - http://www.bohemiancoding.com/sketch -->
    <title>Rectangle 16 Copy</title>
    <desc>Created with Sketch.</desc>
    <defs></defs>
    <g id="Page-1" stroke="none" stroke-width="1" fill="none" fill-rule="evenodd" fill-opacity="0.356459466">
        <g id="mobile-application-1" transform="translate(0.000000, -2819.000000)" fill="#BBDEFB">
            <path d="M0,2838.9389 C28.3644882,2835.59142 72.6105072,2818.74274 110.5,2832.68491 C128.982379,2839.48585 144.606325,2860.89506 162.808594,2872.58239 C190.227332,2890.18744 208.51985,2845.91907 241.679688,2844.91311 C277.27694,2843.83322 314.175214,2906.75956 375.875,2897.84703 C412.189556,2892.60139 416.609375,2832.68491 476.164062,2844.91311 C535.71875,2857.14132 549.59375,2810.28327 593.300781,2825.01705 C606.043679,2829.31272 646.759678,2870.97297 709.550781,2880.10874 C738.817238,2884.36685 799.292969,2846.69579 842.472656,2856.32633 C885.652344,2865.95687 904.090922,2912.99781 952.898438,2903.90676 C983.060848,2898.28861 1010.51336,2869.67149 1030.25781,2832.68491 C1041.78137,2811.09824 1098.31809,2816.4506 1115.10156,2838.9389 C1135.26562,2865.95687 1165.93774,2817.45434 1203.54297,2838.9389 C1229.01432,2853.49115 1254.5,2853.49115 1280,2838.9389 L1280,2990 L0,2990 C-213.333333,2914.46945 -213.333333,2864.11575 0,2838.9389 Z" id="Rectangle-16-Copy"></path>
        </g>
    </g>
</svg>